<mxfile host="app.diagrams.net" agent="Mozilla/5.0 (Windows NT 10.0; Win64; x64) AppleWebKit/537.36 (KHTML, like Gecko) Chrome/137.0.0.0 Safari/537.36" version="28.2.5">
  <diagram name="หน้า-1" id="a4StdDascq53UywL7Htl">
    <mxGraphModel dx="1426" dy="3079" grid="1" gridSize="10" guides="1" tooltips="1" connect="1" arrows="1" fold="1" page="1" pageScale="1" pageWidth="1654" pageHeight="2336" math="0" shadow="0">
      <root>
        <mxCell id="0" />
        <mxCell id="1" parent="0" />
        <mxCell id="2" value="Start" style="ellipse;whiteSpace=wrap;html=1;" vertex="1" parent="1">
          <mxGeometry x="350" y="-10" width="150" height="50" as="geometry" />
        </mxCell>
        <mxCell id="3" value="ประกาศตัวแปร&#xa;employeeID (≤10 ตัวอักษร)&#xa;workinghrs = 0 (จำนวนเต็ม)&#xa;Salary (ทศนิยม)" style="whiteSpace=wrap;html=1;" vertex="1" parent="1">
          <mxGeometry x="280" y="70" width="290" height="90" as="geometry" />
        </mxCell>
        <mxCell id="4" value="แสดง: Input the Employees ID (Max. 10 chars):" style="shape=parallelogram;perimeter=parallelogramPerimeter;whiteSpace=wrap;html=1;" vertex="1" parent="1">
          <mxGeometry x="250" y="190" width="350" height="60" as="geometry" />
        </mxCell>
        <mxCell id="5" value="รับค่า employeeID (สตริง)" style="shape=parallelogram;perimeter=parallelogramPerimeter;whiteSpace=wrap;html=1;" vertex="1" parent="1">
          <mxGeometry x="300" y="280" width="250" height="60" as="geometry" />
        </mxCell>
        <mxCell id="6" value="แสดง: Input the working hrs:" style="shape=parallelogram;perimeter=parallelogramPerimeter;whiteSpace=wrap;html=1;" vertex="1" parent="1">
          <mxGeometry x="290" y="380" width="270" height="60" as="geometry" />
        </mxCell>
        <mxCell id="7" value="รับค่า workinghrs (จำนวนเต็ม ชั่วโมง)" style="shape=parallelogram;perimeter=parallelogramPerimeter;whiteSpace=wrap;html=1;" vertex="1" parent="1">
          <mxGeometry x="270" y="480" width="310" height="60" as="geometry" />
        </mxCell>
        <mxCell id="8" value="แสดง: Salary amount/hr:" style="shape=parallelogram;perimeter=parallelogramPerimeter;whiteSpace=wrap;html=1;" vertex="1" parent="1">
          <mxGeometry x="300" y="580" width="250" height="60" as="geometry" />
        </mxCell>
        <mxCell id="9" value="รับค่า Salary (ทศนิยม บาท/ชั่วโมง)" style="shape=parallelogram;perimeter=parallelogramPerimeter;whiteSpace=wrap;html=1;" vertex="1" parent="1">
          <mxGeometry x="270" y="690" width="310" height="60" as="geometry" />
        </mxCell>
        <mxCell id="10" value="แสดงหัวข้อผลลัพธ์&#xa;Expected Output:" style="shape=parallelogram;perimeter=parallelogramPerimeter;whiteSpace=wrap;html=1;" vertex="1" parent="1">
          <mxGeometry x="300" y="790" width="250" height="60" as="geometry" />
        </mxCell>
        <mxCell id="11" value="แสดง: Employee ID: {employeeID}" style="shape=parallelogram;perimeter=parallelogramPerimeter;whiteSpace=wrap;html=1;" vertex="1" parent="1">
          <mxGeometry x="280" y="890" width="290" height="60" as="geometry" />
        </mxCell>
        <mxCell id="12" value="คำนวณค่าจ้างรวม&#xa;total = Salary × workinghrs" style="whiteSpace=wrap;html=1;" vertex="1" parent="1">
          <mxGeometry x="300" y="980" width="250" height="60" as="geometry" />
        </mxCell>
        <mxCell id="13" value="แสดง: Salary = U$ {total} (ทศนิยม 2 ตำแหน่ง)" style="shape=parallelogram;perimeter=parallelogramPerimeter;whiteSpace=wrap;html=1;" vertex="1" parent="1">
          <mxGeometry x="260" y="1070" width="330" height="60" as="geometry" />
        </mxCell>
        <mxCell id="14" value="Stop" style="ellipse;whiteSpace=wrap;html=1;" vertex="1" parent="1">
          <mxGeometry x="350" y="1160" width="150" height="50" as="geometry" />
        </mxCell>
        <mxCell id="e1" style="endArrow=classic;orthogonal=1;rounded=0;" edge="1" parent="1" source="2" target="3">
          <mxGeometry relative="1" as="geometry" />
        </mxCell>
        <mxCell id="e2" style="endArrow=classic;orthogonal=1;rounded=0;" edge="1" parent="1" source="3" target="4">
          <mxGeometry relative="1" as="geometry" />
        </mxCell>
        <mxCell id="e3" style="endArrow=classic;orthogonal=1;rounded=0;" edge="1" parent="1" source="4" target="5">
          <mxGeometry relative="1" as="geometry" />
        </mxCell>
        <mxCell id="e4" style="endArrow=classic;orthogonal=1;rounded=0;" edge="1" parent="1" source="5" target="6">
          <mxGeometry relative="1" as="geometry" />
        </mxCell>
        <mxCell id="e5" style="endArrow=classic;orthogonal=1;rounded=0;" edge="1" parent="1" source="6" target="7">
          <mxGeometry relative="1" as="geometry" />
        </mxCell>
        <mxCell id="e6" style="endArrow=classic;orthogonal=1;rounded=0;" edge="1" parent="1" source="7" target="8">
          <mxGeometry relative="1" as="geometry" />
        </mxCell>
        <mxCell id="e7" style="endArrow=classic;orthogonal=1;rounded=0;" edge="1" parent="1" source="8" target="9">
          <mxGeometry relative="1" as="geometry" />
        </mxCell>
        <mxCell id="e8" style="endArrow=classic;orthogonal=1;rounded=0;" edge="1" parent="1" source="9" target="10">
          <mxGeometry relative="1" as="geometry" />
        </mxCell>
        <mxCell id="e9" style="endArrow=classic;orthogonal=1;rounded=0;" edge="1" parent="1" source="10" target="11">
          <mxGeometry relative="1" as="geometry" />
        </mxCell>
        <mxCell id="e10" style="endArrow=classic;orthogonal=1;rounded=0;" edge="1" parent="1" source="11" target="12">
          <mxGeometry relative="1" as="geometry" />
        </mxCell>
        <mxCell id="e11" style="endArrow=classic;orthogonal=1;rounded=0;" edge="1" parent="1" source="12" target="13">
          <mxGeometry relative="1" as="geometry" />
        </mxCell>
        <mxCell id="e12" style="endArrow=classic;orthogonal=1;rounded=0;" edge="1" parent="1" source="13" target="14">
          <mxGeometry relative="1" as="geometry" />
        </mxCell>
      </root>
    </mxGraphModel>
  </diagram>
</mxfile>
